<mxfile host="app.diagrams.net" modified="2021-12-20T09:31:28.851Z" agent="5.0 (X11; Linux x86_64) AppleWebKit/537.36 (KHTML, like Gecko) Chrome/93.0.4577.63 Safari/537.36" etag="s_x-HKoTlFp5fvk-QNil" version="15.7.0" type="github">
  <diagram id="6a731a19-8d31-9384-78a2-239565b7b9f0" name="Page-1">
    <mxGraphModel dx="1588" dy="876" grid="1" gridSize="10" guides="1" tooltips="1" connect="1" arrows="1" fold="1" page="1" pageScale="1" pageWidth="1169" pageHeight="827" background="none" math="0" shadow="0">
      <root>
        <mxCell id="0" />
        <mxCell id="1" parent="0" />
        <mxCell id="nm6pvVGnyssuS87_21TK-56" value="" style="edgeStyle=orthogonalEdgeStyle;rounded=0;orthogonalLoop=1;jettySize=auto;html=1;" edge="1" parent="1" source="2" target="nm6pvVGnyssuS87_21TK-55">
          <mxGeometry relative="1" as="geometry" />
        </mxCell>
        <mxCell id="2" value="start" style="shape=mxgraph.flowchart.terminator;strokeWidth=2;gradientColor=none;gradientDirection=north;fontStyle=0;html=1;" parent="1" vertex="1">
          <mxGeometry x="260" y="60" width="120" height="30" as="geometry" />
        </mxCell>
        <mxCell id="7" style="fontStyle=1;strokeColor=#003366;strokeWidth=1;html=1;" parent="1" source="2" edge="1">
          <mxGeometry relative="1" as="geometry">
            <mxPoint x="320" y="130" as="targetPoint" />
          </mxGeometry>
        </mxCell>
        <mxCell id="45" value="" style="edgeStyle=elbowEdgeStyle;elbow=horizontal;exitX=1;exitY=0.5;exitPerimeter=0;entryX=0.905;entryY=0.5;entryPerimeter=0;fontStyle=1;strokeColor=#003366;strokeWidth=1;html=1;" parent="1" target="34" edge="1">
          <mxGeometry width="100" height="100" as="geometry">
            <mxPoint x="380.5" y="1119.25" as="sourcePoint" />
            <mxPoint x="100" as="targetPoint" />
            <Array as="points">
              <mxPoint x="950" y="1320" />
            </Array>
          </mxGeometry>
        </mxCell>
        <mxCell id="nm6pvVGnyssuS87_21TK-58" value="" style="edgeStyle=orthogonalEdgeStyle;rounded=0;orthogonalLoop=1;jettySize=auto;html=1;" edge="1" parent="1" source="nm6pvVGnyssuS87_21TK-55" target="nm6pvVGnyssuS87_21TK-57">
          <mxGeometry relative="1" as="geometry" />
        </mxCell>
        <mxCell id="nm6pvVGnyssuS87_21TK-55" value="打开应用商店" style="whiteSpace=wrap;html=1;fontStyle=0;strokeWidth=2;gradientDirection=north;" vertex="1" parent="1">
          <mxGeometry x="260" y="155" width="120" height="60" as="geometry" />
        </mxCell>
        <mxCell id="nm6pvVGnyssuS87_21TK-60" value="" style="edgeStyle=orthogonalEdgeStyle;rounded=0;orthogonalLoop=1;jettySize=auto;html=1;" edge="1" parent="1" source="nm6pvVGnyssuS87_21TK-57" target="nm6pvVGnyssuS87_21TK-59">
          <mxGeometry relative="1" as="geometry" />
        </mxCell>
        <mxCell id="nm6pvVGnyssuS87_21TK-62" value="" style="edgeStyle=orthogonalEdgeStyle;rounded=0;orthogonalLoop=1;jettySize=auto;html=1;exitX=1;exitY=0.5;exitDx=0;exitDy=0;" edge="1" parent="1" source="nm6pvVGnyssuS87_21TK-55" target="nm6pvVGnyssuS87_21TK-61">
          <mxGeometry relative="1" as="geometry" />
        </mxCell>
        <mxCell id="nm6pvVGnyssuS87_21TK-57" value="是否联网" style="rhombus;whiteSpace=wrap;html=1;fontStyle=0;strokeWidth=2;gradientDirection=north;" vertex="1" parent="1">
          <mxGeometry x="280" y="334" width="80" height="80" as="geometry" />
        </mxCell>
        <mxCell id="nm6pvVGnyssuS87_21TK-59" value="刷新缓存数据" style="whiteSpace=wrap;html=1;fontStyle=0;strokeWidth=2;gradientDirection=north;" vertex="1" parent="1">
          <mxGeometry x="260" y="455" width="120" height="60" as="geometry" />
        </mxCell>
        <mxCell id="nm6pvVGnyssuS87_21TK-64" value="" style="edgeStyle=orthogonalEdgeStyle;rounded=0;orthogonalLoop=1;jettySize=auto;html=1;" edge="1" parent="1" source="nm6pvVGnyssuS87_21TK-61" target="nm6pvVGnyssuS87_21TK-63">
          <mxGeometry relative="1" as="geometry" />
        </mxCell>
        <mxCell id="nm6pvVGnyssuS87_21TK-61" value="加载缓存文件" style="whiteSpace=wrap;html=1;fontStyle=0;strokeWidth=2;gradientDirection=north;" vertex="1" parent="1">
          <mxGeometry x="460" y="455" width="120" height="60" as="geometry" />
        </mxCell>
        <mxCell id="nm6pvVGnyssuS87_21TK-67" value="" style="edgeStyle=orthogonalEdgeStyle;rounded=0;orthogonalLoop=1;jettySize=auto;html=1;" edge="1" parent="1" source="nm6pvVGnyssuS87_21TK-63" target="nm6pvVGnyssuS87_21TK-66">
          <mxGeometry relative="1" as="geometry" />
        </mxCell>
        <mxCell id="nm6pvVGnyssuS87_21TK-63" value="显示ui" style="whiteSpace=wrap;html=1;fontStyle=0;strokeWidth=2;gradientDirection=north;" vertex="1" parent="1">
          <mxGeometry x="460" y="595" width="120" height="60" as="geometry" />
        </mxCell>
        <mxCell id="nm6pvVGnyssuS87_21TK-66" value="end" style="ellipse;whiteSpace=wrap;html=1;fontStyle=0;strokeWidth=2;gradientDirection=north;" vertex="1" parent="1">
          <mxGeometry x="460" y="735" width="120" height="60" as="geometry" />
        </mxCell>
        <mxCell id="nm6pvVGnyssuS87_21TK-68" value="" style="edgeStyle=orthogonalEdgeStyle;rounded=0;orthogonalLoop=1;jettySize=auto;html=1;" edge="1" parent="1" source="nm6pvVGnyssuS87_21TK-69" target="nm6pvVGnyssuS87_21TK-72">
          <mxGeometry relative="1" as="geometry" />
        </mxCell>
        <mxCell id="nm6pvVGnyssuS87_21TK-69" value="start" style="shape=mxgraph.flowchart.terminator;strokeWidth=2;gradientColor=none;gradientDirection=north;fontStyle=0;html=1;" vertex="1" parent="1">
          <mxGeometry x="720" y="60" width="120" height="30" as="geometry" />
        </mxCell>
        <mxCell id="nm6pvVGnyssuS87_21TK-70" style="fontStyle=1;strokeColor=#003366;strokeWidth=1;html=1;" edge="1" parent="1" source="nm6pvVGnyssuS87_21TK-69">
          <mxGeometry relative="1" as="geometry">
            <mxPoint x="780" y="130" as="targetPoint" />
          </mxGeometry>
        </mxCell>
        <mxCell id="nm6pvVGnyssuS87_21TK-71" value="" style="edgeStyle=orthogonalEdgeStyle;rounded=0;orthogonalLoop=1;jettySize=auto;html=1;" edge="1" parent="1" source="nm6pvVGnyssuS87_21TK-72" target="nm6pvVGnyssuS87_21TK-75">
          <mxGeometry relative="1" as="geometry" />
        </mxCell>
        <mxCell id="nm6pvVGnyssuS87_21TK-72" value="下拉刷新" style="whiteSpace=wrap;html=1;fontStyle=0;strokeWidth=2;gradientDirection=north;" vertex="1" parent="1">
          <mxGeometry x="720" y="155" width="120" height="60" as="geometry" />
        </mxCell>
        <mxCell id="nm6pvVGnyssuS87_21TK-74" value="" style="edgeStyle=orthogonalEdgeStyle;rounded=0;orthogonalLoop=1;jettySize=auto;html=1;" edge="1" parent="1" source="nm6pvVGnyssuS87_21TK-75" target="nm6pvVGnyssuS87_21TK-79">
          <mxGeometry relative="1" as="geometry" />
        </mxCell>
        <mxCell id="nm6pvVGnyssuS87_21TK-85" value="" style="edgeStyle=orthogonalEdgeStyle;rounded=0;orthogonalLoop=1;jettySize=auto;html=1;" edge="1" parent="1" source="nm6pvVGnyssuS87_21TK-75" target="nm6pvVGnyssuS87_21TK-84">
          <mxGeometry relative="1" as="geometry" />
        </mxCell>
        <mxCell id="nm6pvVGnyssuS87_21TK-75" value="是否联网" style="rhombus;whiteSpace=wrap;html=1;fontStyle=0;strokeWidth=2;gradientDirection=north;" vertex="1" parent="1">
          <mxGeometry x="740" y="285" width="80" height="80" as="geometry" />
        </mxCell>
        <mxCell id="nm6pvVGnyssuS87_21TK-83" style="edgeStyle=orthogonalEdgeStyle;rounded=0;orthogonalLoop=1;jettySize=auto;html=1;exitX=0.5;exitY=1;exitDx=0;exitDy=0;entryX=0;entryY=0.5;entryDx=0;entryDy=0;" edge="1" parent="1" source="nm6pvVGnyssuS87_21TK-77" target="nm6pvVGnyssuS87_21TK-81">
          <mxGeometry relative="1" as="geometry" />
        </mxCell>
        <mxCell id="nm6pvVGnyssuS87_21TK-77" value="请求网络刷新缓存数据" style="whiteSpace=wrap;html=1;fontStyle=0;strokeWidth=2;gradientDirection=north;" vertex="1" parent="1">
          <mxGeometry x="720" y="560" width="120" height="60" as="geometry" />
        </mxCell>
        <mxCell id="nm6pvVGnyssuS87_21TK-78" value="" style="edgeStyle=orthogonalEdgeStyle;rounded=0;orthogonalLoop=1;jettySize=auto;html=1;" edge="1" parent="1" source="nm6pvVGnyssuS87_21TK-79" target="nm6pvVGnyssuS87_21TK-81">
          <mxGeometry relative="1" as="geometry" />
        </mxCell>
        <mxCell id="nm6pvVGnyssuS87_21TK-79" value="结束刷新流程" style="whiteSpace=wrap;html=1;fontStyle=0;strokeWidth=2;gradientDirection=north;" vertex="1" parent="1">
          <mxGeometry x="930" y="480" width="120" height="60" as="geometry" />
        </mxCell>
        <mxCell id="nm6pvVGnyssuS87_21TK-80" value="" style="edgeStyle=orthogonalEdgeStyle;rounded=0;orthogonalLoop=1;jettySize=auto;html=1;" edge="1" parent="1" source="nm6pvVGnyssuS87_21TK-81" target="nm6pvVGnyssuS87_21TK-82">
          <mxGeometry relative="1" as="geometry" />
        </mxCell>
        <mxCell id="nm6pvVGnyssuS87_21TK-81" value="显示ui" style="whiteSpace=wrap;html=1;fontStyle=0;strokeWidth=2;gradientDirection=north;" vertex="1" parent="1">
          <mxGeometry x="930" y="640" width="120" height="60" as="geometry" />
        </mxCell>
        <mxCell id="nm6pvVGnyssuS87_21TK-82" value="end" style="ellipse;whiteSpace=wrap;html=1;fontStyle=0;strokeWidth=2;gradientDirection=north;" vertex="1" parent="1">
          <mxGeometry x="930" y="750" width="120" height="60" as="geometry" />
        </mxCell>
        <mxCell id="nm6pvVGnyssuS87_21TK-86" style="edgeStyle=orthogonalEdgeStyle;rounded=0;orthogonalLoop=1;jettySize=auto;html=1;exitX=0.5;exitY=1;exitDx=0;exitDy=0;entryX=0.5;entryY=0;entryDx=0;entryDy=0;" edge="1" parent="1" source="nm6pvVGnyssuS87_21TK-84" target="nm6pvVGnyssuS87_21TK-77">
          <mxGeometry relative="1" as="geometry" />
        </mxCell>
        <mxCell id="nm6pvVGnyssuS87_21TK-84" value="&lt;span&gt;清理缓存&lt;/span&gt;" style="whiteSpace=wrap;html=1;fontStyle=0;strokeWidth=2;gradientDirection=north;" vertex="1" parent="1">
          <mxGeometry x="720" y="400" width="120" height="65" as="geometry" />
        </mxCell>
      </root>
    </mxGraphModel>
  </diagram>
</mxfile>
